<?xml version="1.0" encoding="utf-8"?>
<!-- Generator: Adobe Illustrator 16.2.1, SVG Export Plug-In . SVG Version: 6.00 Build 0)  -->
<!DOCTYPE svg PUBLIC "-//W3C//DTD SVG 1.1//EN" "http://www.w3.org/Graphics/SVG/1.1/DTD/svg11.dtd">
<svg version="1.1" id="Capa_1" xmlns="http://www.w3.org/2000/svg" xmlns:xlink="http://www.w3.org/1999/xlink" x="0px" y="0px"
	 width="626px" height="281px" viewBox="0 0 626 281" enable-background="new 0 0 626 281" xml:space="preserve">
<g>
	<path fill="#03558A" d="M163.589,231.184c-5.583,0-11.724-0.561-15.073-1.863v47.834h-26.43v-128.98l26.056-2.229v10.237
		c5.772-7.445,13.213-10.981,23.079-10.981c21.216,0,32.942,15.261,32.942,40.386C204.164,215.365,182.947,231.184,163.589,231.184z
		 M158.751,165.486c-4.281,0-7.632,1.676-10.235,3.723v38.709c1.86,1.305,5.026,2.42,9.677,2.42c9.866,0,17.307-4.465,17.307-23.266
		C175.5,171.439,168.615,165.486,158.751,165.486z"/>
	<path fill="#03558A" d="M255.271,231.184c-21.588,0-42.802-13.959-42.802-42.061c0-29.223,20.845-43.923,41.313-43.923
		c23.822,0,35.177,14.7,35.177,34.06c0,2.789-0.189,9.676-0.745,12.652h-47.271c-0.189,0.93-0.189,1.305-0.189,1.494
		c0,11.162,8.188,16.189,19.728,16.189c7.448,0,15.447-2.793,22.333-8.191l7.632,17.307
		C281.327,227.459,269.417,231.184,255.271,231.184z M264.018,173.678c0-6.701-3.721-11.541-10.794-11.541
		c-7.445,0-11.722,5.398-11.911,15.076h22.705V173.678z"/>
	<path fill="#03558A" d="M359.169,231.184c-6.887-11.354-16.189-25.127-24.752-35.178l-7.072,6.33v26.984h-26.426V98.675
		l26.426-2.234v80.772l37.443-37.714l23.975,7.548l-35.549,32.213c10.611,12.467,24.568,31.451,34.248,46.711L359.169,231.184z"/>
	<path fill="#03558A" d="M60.628,231.184C30.555,231.184,1,211.742,1,172.59c0-40.702,29.038-61.181,57.557-61.181
		c33.179,0,48.998,20.479,48.998,47.445c0,3.887-0.26,13.48-1.038,17.627H40.668c-0.262,1.293-0.262,1.812-0.262,2.074
		c0,15.555,11.411,22.555,27.484,22.555c10.367,0,21.515-3.889,31.108-11.406l10.628,24.109
		C96.924,225.994,80.332,231.184,60.628,231.184z M72.816,151.074c0-9.331-5.189-16.074-15.041-16.074
		c-10.369,0-16.332,7.52-16.589,21.001h31.63V151.074z"/>
	<path opacity="0.15" fill="#03558A" d="M576.364,233.854c0,5.938-37.855,10.748-84.557,10.748s-84.559-4.811-84.559-10.748
		c0-5.939,37.857-10.754,84.559-10.754S576.364,227.914,576.364,233.854z"/>
	<linearGradient id="SVGID_1_" gradientUnits="userSpaceOnUse" x1="164.6235" y1="265.3984" x2="164.6235" y2="132.5728">
		<stop  offset="0" style="stop-color:#18AFE1"/>
		<stop  offset="0.2525" style="stop-color:#46B6E3"/>
		<stop  offset="0.7348" style="stop-color:#82CBE7"/>
		<stop  offset="1" style="stop-color:#9FD7EA"/>
	</linearGradient>
	<path fill="url(#SVGID_1_)" d="M165.086,229.789c-5.583,0-11.724-0.561-15.07-1.859v47.83h-26.43V146.781l26.056-2.229v10.237
		c5.77-7.447,13.213-10.981,23.077-10.981c21.216,0,32.943,15.259,32.943,40.388C205.661,213.971,184.444,229.789,165.086,229.789z
		 M160.249,164.094c-4.279,0-7.627,1.674-10.233,3.723v38.707c1.86,1.305,5.024,2.422,9.675,2.422
		c9.866,0,17.311-4.465,17.311-23.266C177.001,170.047,170.113,164.094,160.249,164.094z"/>
	<linearGradient id="SVGID_2_" gradientUnits="userSpaceOnUse" x1="252.9561" y1="265.3984" x2="252.9561" y2="132.5734">
		<stop  offset="0" style="stop-color:#18AFE1"/>
		<stop  offset="0.2525" style="stop-color:#46B6E3"/>
		<stop  offset="0.7348" style="stop-color:#82CBE7"/>
		<stop  offset="1" style="stop-color:#9FD7EA"/>
	</linearGradient>
	<path fill="url(#SVGID_2_)" d="M256.77,229.789c-21.588,0-42.802-13.955-42.802-42.059c0-29.223,20.845-43.923,41.313-43.923
		c23.822,0,35.174,14.7,35.174,34.06c0,2.789-0.185,9.674-0.745,12.654H242.44c-0.189,0.93-0.189,1.303-0.189,1.49
		c0,11.166,8.19,16.191,19.728,16.191c7.447,0,15.447-2.795,22.335-8.189l7.63,17.307
		C282.826,226.066,270.915,229.789,256.77,229.789z M265.517,172.283c0-6.699-3.718-11.541-10.794-11.541
		c-7.445,0-11.724,5.398-11.913,15.076h22.707V172.283z"/>
	<linearGradient id="SVGID_3_" gradientUnits="userSpaceOnUse" x1="346.3379" y1="265.3994" x2="346.3379" y2="132.5709">
		<stop  offset="0" style="stop-color:#18AFE1"/>
		<stop  offset="0.2525" style="stop-color:#46B6E3"/>
		<stop  offset="0.7348" style="stop-color:#82CBE7"/>
		<stop  offset="1" style="stop-color:#9FD7EA"/>
	</linearGradient>
	<path fill="url(#SVGID_3_)" d="M360.667,229.789c-6.885-11.35-16.188-25.123-24.75-35.174l-7.074,6.326v26.988h-26.427V97.283
		l26.427-2.236v80.771l37.445-37.711l23.973,7.546l-35.549,32.214c10.611,12.465,24.568,31.451,34.246,46.711L360.667,229.789z"/>
	<linearGradient id="SVGID_4_" gradientUnits="userSpaceOnUse" x1="56.813" y1="265.3994" x2="56.813" y2="132.5708">
		<stop  offset="0" style="stop-color:#18AFE1"/>
		<stop  offset="0.2525" style="stop-color:#46B6E3"/>
		<stop  offset="0.7348" style="stop-color:#82CBE7"/>
		<stop  offset="1" style="stop-color:#9FD7EA"/>
	</linearGradient>
	<path fill="url(#SVGID_4_)" d="M62.125,229.789c-30.073,0-59.625-19.441-59.625-58.59c0-40.705,29.035-61.185,57.555-61.185
		c33.181,0,48.997,20.48,48.997,47.449c0,3.885-0.258,13.477-1.038,17.627H42.166c-0.26,1.293-0.26,1.811-0.26,2.07
		c0,15.557,11.408,22.555,27.482,22.555c10.369,0,21.517-3.887,31.108-11.406l10.631,24.111
		C98.421,224.6,81.832,229.789,62.125,229.789z M74.313,149.682c0-9.331-5.186-16.075-15.039-16.075
		c-10.369,0-16.332,7.52-16.592,21.003h31.63V149.682z"/>
	<path opacity="0.14" fill="#FFFFFF" d="M172.718,144.71c-8.152,0-14.63,2.456-19.897,7.497c-1.117,0.924-2.163,1.994-3.179,3.133
		v-9.886l-26.056,2.229v1.264l-1.499,0.129v35.963c8.777,1.078,18.086,1.934,27.929,2.512v-18.5c2.358-1.531,5.23-2.662,8.736-2.662
		c9.864,0,16.749,5.953,16.749,21.586c0,0.141-0.009,0.26-0.011,0.398c9.598,0.068,19.625-0.123,30.109-0.621
		c0.039-0.875,0.062-1.758,0.062-2.654C205.661,159.969,193.935,144.71,172.718,144.71z"/>
	<path opacity="0.14" fill="#FFFFFF" d="M255.281,144.71c-10.506,0-21.092,3.901-28.926,11.624
		c-7.768,6.887-13.208,17.223-13.825,31.047c2.073-0.125,4.157-0.254,6.264-0.402c0,0,31.149-7.225,71.578-10.457
		C289.513,158.291,278.167,144.71,255.281,144.71z M264.018,176.721H242.81c0.101-5.129,1.36-9.043,3.62-11.602
		c1.821-1.363,4.096-2.08,6.794-2.08c7.074,0,10.794,4.84,10.794,11.541V176.721z"/>
	<path opacity="0.14" fill="#FFFFFF" d="M388.733,147.938l1.527-1.383l-23.973-7.545l-1.408,1.42l-0.092-0.028l-34.357,34.605
		c8.988,0.076,18.078,0.465,27.082,1.26l31.25-28.318L388.733,147.938z"/>
	<path opacity="0.14" fill="#FFFFFF" d="M328.843,174.998V95.949l-26.427,2.236v1.265l-1.497,0.127v76.212
		C309.956,175.256,319.335,174.957,328.843,174.998z"/>
	<path opacity="0.14" fill="#FFFFFF" d="M106.732,175.99h1.282c0.78-4.148,1.038-13.74,1.038-17.627
		c0-26.967-15.816-47.447-48.997-47.447c-14.5,0-29.122,5.304-40.003,15.857c-5.886,5.289-10.777,12.036-14.134,20.213
		c7.112,5.045,30.655,19.926,73.681,30.396h26.919C106.594,176.973,106.666,176.498,106.732,175.99z M72.816,155.512H42.683
		c0.142-7.389,2.008-12.974,5.364-16.524c2.58-2.028,5.845-3.085,9.729-3.085c9.851,0,15.041,6.743,15.041,16.074V155.512z"/>
	<path fill="#009EE0" d="M611.095,84.145c-5.266-0.868-10.342,0.962-13.852,4.47c-0.008,0.004-0.023,0-0.033-0.002l-70.174,62.256
		l85.152-35.534c0.98-0.236,1.928-0.562,2.84-0.973l0.045-0.017h0.002c4.676-2.126,8.242-6.47,9.133-11.911
		C625.642,93.76,619.765,85.572,611.095,84.145z M617.524,102.833c-1.494,3.166-3.951,5.8-7.328,7.939
		c-3.379,2.144-6.703,3.117-9.973,2.973c-3.25-0.142-5.502-1.345-6.732-3.654c-1.229-2.346-1.072-5.087,0.42-8.231
		c1.541-3.141,4.006-5.77,7.379-7.914c3.379-2.142,6.705-3.141,9.953-3.001c3.275,0.144,5.521,1.375,6.754,3.714
		C619.226,96.976,619.065,99.691,617.524,102.833z"/>
	<path opacity="0.22" d="M527.198,150.867l20.064-8.372c-1.123-2.144-2.25-4.288-3.381-6.427L527.198,150.867z"/>
	<path fill="#97BF0D" d="M580.134,49.471L580.134,49.471c3.084-4.105,4.131-9.625,2.303-14.833
		c-2.906-8.298-11.986-12.663-20.281-9.754c-5.031,1.759-8.609,5.804-10.006,10.562c-0.006,0.007-37.514,97.208-37.514,97.208
		s64.867-82.352,65.465-83.145L580.134,49.471z M572.995,49.042c-1.963,3.686-4.373,6.369-7.277,8.027
		c-2.855,1.656-5.367,1.828-7.49,0.485c-2.117-1.342-3.271-3.8-3.402-7.37c-0.129-3.542,0.787-7.17,2.748-10.856
		c1.963-3.684,4.373-6.369,7.256-8.027c2.902-1.654,5.42-1.828,7.533-0.488c2.127,1.347,3.25,3.802,3.354,7.347
		C575.849,41.728,574.956,45.355,572.995,49.042z"/>
	<path opacity="0.22" d="M514.802,132.653c0,0,6.727-8.547,15.871-20.151c-1.586-2.58-3.277-5.207-5.082-7.821
		C519.509,120.439,514.802,132.653,514.802,132.653z"/>
	<path fill="#AF418E" d="M474.071,4.869c-4.176,3.604-6.023,8.91-5.393,14.008v0.002l0.008,0.047
		c0.125,0.988,15.33,104.708,15.33,104.708s15.912-102.961,15.912-102.974c1.158-4.818,0.074-10.109-3.414-14.143
		C490.772-0.136,480.72-0.877,474.071,4.869z M491.224,34.557c-1.725,2.997-3.82,4.513-6.285,4.513
		c-2.461-0.028-4.551-1.517-6.307-4.513c-1.727-2.999-2.592-6.655-2.592-10.914c0-4.253,0.865-7.912,2.592-10.912
		c1.756-2.999,3.846-4.511,6.307-4.511c2.465,0,4.561,1.512,6.285,4.511c1.758,3,2.619,6.631,2.619,10.888
		C493.843,27.87,492.981,31.528,491.224,34.557z"/>
	<path opacity="0.22" d="M476.673,72.423c3.779,25.79,7.504,51.208,7.504,51.208s3.766-24.354,7.631-49.375
		C487.001,72.522,481.946,71.792,476.673,72.423z"/>
	<path fill="#FDC700" d="M405.304,24.884c-8.287-2.908-17.373,1.457-20.277,9.754c-1.826,5.207-0.779,10.728,2.303,14.833h0.002
		l0.029,0.039c0.604,0.793,65.465,83.145,65.465,83.145s-37.506-97.202-37.512-97.208C413.919,30.688,410.341,26.644,405.304,24.884
		z M409.231,57.554c-2.119,1.343-4.631,1.171-7.486-0.485c-2.902-1.658-5.314-4.341-7.277-8.027s-2.854-7.314-2.723-10.882
		c0.107-3.544,1.23-6,3.352-7.347c2.119-1.34,4.635-1.166,7.537,0.488c2.881,1.658,5.289,4.343,7.254,8.027
		c1.965,3.686,2.879,7.314,2.752,10.856C412.503,53.754,411.354,56.212,409.231,57.554z"/>
	<path fill="#DF001C" d="M370.212,88.615c-3.502-3.508-8.58-5.338-13.846-4.47c-8.67,1.427-14.545,9.615-13.113,18.289
		c0.895,5.441,4.459,9.784,9.135,11.911h0.002l0.045,0.017c0.91,0.411,1.859,0.737,2.84,0.973l85.152,35.534l-70.172-62.256
		C370.241,88.615,370.228,88.62,370.212,88.615z M373.554,101.86c1.49,3.145,1.646,5.886,0.416,8.231
		c-1.23,2.309-3.482,3.512-6.725,3.654c-3.277,0.144-6.596-0.829-9.975-2.973c-3.377-2.139-5.84-4.773-7.332-7.939
		c-1.541-3.143-1.703-5.858-0.471-8.173c1.232-2.339,3.479-3.57,6.752-3.714c3.248-0.14,6.574,0.859,9.951,3.001
		C369.544,96.091,372.009,98.72,373.554,101.86z"/>
	<path opacity="0.22" d="M452.985,132.653c0,0-5.525-14.33-12.338-31.982c-1.842,3.14-3.553,6.414-5.162,9.759
		C445.448,123.079,452.985,132.653,452.985,132.653z"/>
	<path opacity="0.22" d="M440.589,150.867l-16.193-14.365c-0.906,2.202-1.814,4.362-2.73,6.47L440.589,150.867z"/>
	<linearGradient id="SVGID_5_" gradientUnits="userSpaceOnUse" x1="485.0049" y1="231.2734" x2="483.8627" y2="111.9723">
		<stop  offset="0" style="stop-color:#18AFE1"/>
		<stop  offset="0.2525" style="stop-color:#46B6E3"/>
		<stop  offset="0.7348" style="stop-color:#82CBE7"/>
		<stop  offset="1" style="stop-color:#9FD7EA"/>
	</linearGradient>
	<path fill="url(#SVGID_5_)" d="M536.208,173.641c-0.18-6.352-0.762-12.969-1.727-19.668c-0.471-3.246-1.068-6.623-1.791-10.062
		c-0.016-0.031-0.016-0.068-0.018-0.145c-0.48-2.281-1.035-4.666-1.703-7.292c-0.5-1.899-1.033-3.772-1.572-5.572
		c-1.316-4.344-2.816-8.517-4.455-12.412c-1.025-2.459-2.072-4.79-3.119-6.923c-1.922-3.875-3.973-7.492-6.08-10.753
		c-7.994-12.431-16.932-19.831-26.559-22c-1.537-0.357-3.068-0.578-4.541-0.662c-0.244-0.032-0.479-0.026-0.717-0.032
		c-5.945-0.221-11.643,1.551-16.947,5.284l-0.357,0.253l0.432,0.008c5.891,0.114,10.982,3.644,15.145,10.498
		c0.818,1.366,1.549,2.746,2.17,4.103c1.184,2.556,2.146,5.422,2.867,8.513l0.094,0.413l0.174-0.387
		c0.643-1.422,1.41-2.751,2.348-4.062c3.42-4.945,7.621-7.452,12.49-7.452h0.176c4.854,0,9.066,2.509,12.516,7.452
		c3.457,4.99,5.209,11.086,5.209,18.115c0,5.112-0.686,14.62-6.99,16.164c-3.084,0.756-8.709-3.151-11.611-4.133
		c-6.871-2.318-13.262-3.364-20.623-3.035c-14.092,0.627-36.17,12.459-36.172-10.167c0-1.903,0.08-3.783,0.234-5.589l0.076-0.866
		l-0.35,0.799c-0.809,1.858-1.561,3.729-2.303,5.718c-1.359,3.641-2.604,7.51-3.697,11.499l-0.039,0.144
		c-0.322,1.16-0.654,2.36-0.957,3.57c-0.693,2.719-1.35,5.723-2.014,9.18c-0.816,4.247-1.506,8.673-2.047,13.151
		c-0.973,7.869-1.275,15.348-0.891,22.221c0.066,1.074,0.148,2.346,0.266,3.635c0.443,4.801,1.211,9.443,2.289,13.809
		c5.154,12.234,11.951,21.545,20.203,27.666c8.254,6.123,18.197,9.229,29.551,9.229c1.322,0,2.684-0.043,4.057-0.127
		c13.203-1.527,23.814-6.049,31.533-13.445c7.719-7.393,12.76-17.855,14.977-31.105c0.074-0.686,0.125-1.393,0.172-2.08l0.016-0.268
		c0.186-2.791,0.287-5.705,0.316-8.666C536.237,176.619,536.237,175.16,536.208,173.641z"/>
	<path fill="#DB8506" d="M523.354,226.229l-0.031-0.303l-0.213,0.219c-4.686,4.799-11.082,8.227-19.014,10.186l-0.504,0.123
		l0.494,0.15c2.281,0.699,4.428,1.057,6.381,1.057c0,0,0,0,0.002,0c2.521,0,4.797-0.592,6.771-1.756
		C521.696,233.258,523.753,230.002,523.354,226.229z"/>
	<path fill="#F3971D" d="M523.21,226.24c0.398,3.742-1.619,6.916-6.043,9.541c-3.484,2.055-7.826,2.287-13.035,0.684
		c5.992,18.57,12.143,19.688,18.451,3.373C533.319,237.582,533.526,233.039,523.21,226.24L523.21,226.24z"/>
	<g>
		<path fill="#DB8506" d="M469.704,236.496v-0.031c-7.512-1.969-13.848-5.396-18.953-10.311c-2.016,3.713-0.393,7.26,4.869,10.627
			C461.538,240.609,466.22,240.525,469.704,236.496L469.704,236.496z"/>
		<path fill="#DB8506" d="M463.409,239.729L463.409,239.729c-2.318,0-4.967-0.949-7.867-2.828c-5.312-3.4-6.969-7.041-4.916-10.814
			l0.088-0.166l0.133,0.133c5.051,4.854,11.406,8.312,18.895,10.277l0.107,0.025v0.164l-0.035,0.07
			C468.015,238.672,465.858,239.729,463.409,239.729z M450.788,226.389c-1.828,3.561-0.176,7.016,4.908,10.271
			c2.855,1.848,5.449,2.783,7.713,2.783l0,0c2.305,0,4.34-0.971,6.057-2.891C462.083,234.584,455.804,231.164,450.788,226.389z"/>
	</g>
	<path fill="#F3971D" d="M455.62,236.781c-5.262-3.367-6.885-6.914-4.869-10.627c-10.445,6.857-10.262,11.428,0.5,13.684
		c6.309,16.314,12.461,15.197,18.453-3.342C466.22,240.525,461.538,240.609,455.62,236.781L455.62,236.781z"/>
	<path fill="#228FB6" d="M537.722,146.627c-2.125-5.288-4.93-10.591-8.342-15.764l-0.535-0.814l0.279,0.932
		c0.539,1.798,1.068,3.673,1.57,5.566c0.664,2.618,1.221,4.999,1.697,7.25c0,0.066,0,0.145,0.027,0.201
		c0.711,3.403,1.309,6.774,1.781,10.015c0.963,6.688,1.543,13.293,1.725,19.635c0.023,1.516,0.023,2.971,0.023,4.512
		c-0.023,2.955-0.131,5.863-0.311,8.646l-0.02,0.268c-0.047,0.684-0.096,1.389-0.166,2.061
		c-4.418,26.363-19.982,41.268-46.254,44.305c-1.359,0.084-2.713,0.127-4.031,0.127c-22.576,0-39.229-12.355-49.482-36.697
		c-1.066-4.336-1.834-8.959-2.277-13.746c-0.115-1.285-0.195-2.553-0.262-3.627c-0.383-6.855-0.084-14.314,0.889-22.172
		c0.541-4.473,1.227-8.889,2.041-13.13c0.66-3.451,1.32-6.449,2.012-9.162c0.311-1.246,0.656-2.483,0.994-3.709l0.256-0.926
		l-0.514,0.812c-2.971,4.683-5.441,9.495-7.342,14.305c-4.559,11.542-5.9,23.347-3.99,35.085
		c1.912,11.738,7.125,23.738,15.49,35.654l0.023,0.045c0.021,0.049,0.049,0.098,0.088,0.156c2.113,3.709,4.654,7.006,7.559,9.803
		c5.082,4.889,11.479,8.371,19.02,10.348c5.045,1.295,10.693,1.949,16.775,1.949c1.312,0,2.668-0.027,4.027-0.09
		c5.055-0.26,9.66-0.885,13.689-1.859c7.99-1.971,14.43-5.422,19.152-10.264c3.482-3.572,6.133-8.002,7.889-13.168
		c1.408-4.154,4.188-8.066,5.83-12.189c1.762-4.412,3.186-8.963,4.158-13.617c1.807-8.607,2.088-17.518,0.646-26.203
		C541.015,156.211,539.577,151.293,537.722,146.627z"/>
	<linearGradient id="SVGID_6_" gradientUnits="userSpaceOnUse" x1="465.9717" y1="169.585" x2="465.9717" y2="115.2145">
		<stop  offset="0" style="stop-color:#B3BEAB"/>
		<stop  offset="1" style="stop-color:#FCFCF3"/>
	</linearGradient>
	<path fill="url(#SVGID_6_)" d="M482.253,94.093c-4.217-6.942-9.32-10.457-15.264-10.57c-0.102,0-0.209,0-0.312,0
		c-6.1,0-11.309,3.512-15.602,10.57c-3.482,5.712-5.549,12.367-6.209,19.994c-0.152,1.802-0.229,3.686-0.229,5.6
		c0,9.974,2.143,18.479,6.438,25.539c0.08,0.145,0.182,0.287,0.264,0.428c4.24,6.798,9.346,10.198,15.338,10.198
		c4.584,0,8.666-2.029,12.254-6.059c0.025-0.027,0.025-0.027,0.051-0.053c1.936-6.743,4.4-12.368,7.406-16.855
		c0-0.028,0-0.028,0-0.028c0.031,0.028,0.031,0.028,0.053,0.056c-1.357-3.626-2.041-7.625-2.041-12.055
		c0-5.284,0.973-9.969,2.906-14.108c-0.707-3.031-1.65-5.888-2.879-8.541C483.771,96.776,483.04,95.403,482.253,94.093
		L482.253,94.093z M473.224,116.175c0.602-1.514,1.309-2.285,2.145-2.285s1.574,0.771,2.172,2.285
		c0.604,1.542,0.895,3.398,0.895,5.54s-0.291,4.002-0.895,5.514c-0.598,1.542-1.336,2.312-2.172,2.312s-1.623-1.141-2.357-3.396
		c-0.729-2.26,1.074-3.43,5.396-3.486C474.349,119.887,472.622,117.717,473.224,116.175L473.224,116.175z"/>
	<path fill="#FFFFFF" d="M486.458,132.885l0.053,0.028c-0.023-0.028-0.023-0.028-0.053-0.056
		C486.458,132.857,486.458,132.857,486.458,132.885L486.458,132.885z"/>
	<linearGradient id="SVGID_7_" gradientUnits="userSpaceOnUse" x1="502.4219" y1="169.583" x2="502.4219" y2="115.2146">
		<stop  offset="0" style="stop-color:#B3BEAB"/>
		<stop  offset="1" style="stop-color:#FCFCF3"/>
	</linearGradient>
	<path fill="url(#SVGID_7_)" d="M519.909,127.001c0.027-0.116,0.027-0.23,0.051-0.344c0.289-1.858,0.42-3.772,0.42-5.8
		c0-7.112-1.754-13.17-5.234-18.198c-3.508-5.029-7.75-7.542-12.725-7.51c-4.973-0.032-9.215,2.481-12.693,7.51
		c-0.92,1.287-1.701,2.631-2.359,4.09c-1.934,4.139-2.904,8.824-2.904,14.108c0,4.429,0.682,8.429,2.041,12.055
		c4.74,4.827,8.301,9.03,10.633,12.6l0.023,0.029c1.648,0.682,3.4,1.024,5.26,1.054c4.975-0.029,9.217-2.54,12.725-7.568
		c1.834-2.657,3.193-5.572,4.057-8.772C519.493,129.201,519.728,128.114,519.909,127.001L519.909,127.001z M501.612,114.661
		c0.836,0,1.541,0.767,2.148,2.283c0.602,1.541-1.129,3.714-5.186,6.485c4.318,0.058,6.123,1.23,5.391,3.484
		c-0.732,2.26-1.518,3.4-2.354,3.4c-0.84,0-1.572-0.773-2.174-2.311c-0.6-1.519-0.891-3.373-0.891-5.517
		c0-2.139,0.291-4.001,0.891-5.542C500.04,115.427,500.772,114.661,501.612,114.661L501.612,114.661z"/>
	<path fill="#F3971D" d="M519.208,130.255c-0.863,3.201-2.223,6.116-4.057,8.772c-3.51,5.028-7.75,7.539-12.723,7.568
		c-1.861-0.029-3.613-0.372-5.264-1.054h-0.023c1.047,0.882,2.066,1.624,3.059,2.226
		C508.919,153.109,515.255,147.252,519.208,130.255L519.208,130.255z"/>
	<path fill="#3063A9" d="M478.999,149.793h0.027c0-0.027,0-0.027,0.025-0.053C479.026,149.766,479.026,149.766,478.999,149.793
		L478.999,149.793z"/>
	<path fill="#F3971D" d="M479.026,149.793h-0.027c-3.59,4.029-7.672,6.059-12.252,6.059c-5.994,0-11.1-3.4-15.34-10.198
		C460.96,161.904,470.149,163.277,479.026,149.793L479.026,149.793z"/>
	<ellipse fill="#4F95B7" cx="472.316" cy="121.313" rx="9.224" ry="15.503"/>
	<ellipse cx="473.409" cy="118.884" rx="7.438" ry="12.501"/>
	<linearGradient id="SVGID_8_" gradientUnits="userSpaceOnUse" x1="475.0977" y1="86.2319" x2="475.0977" y2="104.8537">
		<stop  offset="0" style="stop-color:#B3BEAB"/>
		<stop  offset="1" style="stop-color:#FCFCF3"/>
	</linearGradient>
	<circle fill="url(#SVGID_8_)" cx="475.098" cy="108.874" r="6.542"/>
	<ellipse fill="#4F95B7" cx="501.068" cy="121.992" rx="5.937" ry="9.979"/>
	<path d="M506.562,120.428c0,4.446-2.143,8.051-4.791,8.051c-2.643,0-4.785-3.604-4.785-8.051c0-4.444,2.143-8.047,4.785-8.047
		C504.419,112.381,506.562,115.984,506.562,120.428z"/>
	<linearGradient id="SVGID_9_" gradientUnits="userSpaceOnUse" x1="502.8604" y1="99.4111" x2="502.8604" y2="111.3983">
		<stop  offset="0" style="stop-color:#B3BEAB"/>
		<stop  offset="1" style="stop-color:#FCFCF3"/>
	</linearGradient>
	<circle fill="url(#SVGID_9_)" cx="502.86" cy="113.986" r="4.209"/>
	<path fill="#228FB6" d="M485.896,135.488c0,0,23.244,7.671,1.125,30.916C487.021,166.404,463.776,145.649,485.896,135.488z"/>
	<path fill="#F3971D" d="M485.896,131.845c0,0,23.244,7.671,1.125,30.918C487.021,162.764,463.776,142.003,485.896,131.845z"/>
	<path fill="#F6A836" d="M485.69,133.471c0,0-8.852,10.532,1.998,23.232l-0.725,4.822
		C486.964,161.525,466.005,141.112,485.69,133.471z"/>
</g>
</svg>
